<?xml version="1.0" standalone="no"?>
<!DOCTYPE svg PUBLIC "-//W3C//DTD SVG 20010904//EN"
 "http://www.w3.org/TR/2001/REC-SVG-20010904/DTD/svg10.dtd">
<svg version="1.0" xmlns="http://www.w3.org/2000/svg"
 width="256.000000pt" height="253.000000pt" viewBox="0 0 256.000000 253.000000"
 preserveAspectRatio="xMidYMid meet">

<g transform="translate(0.000000,253.000000) scale(0.100000,-0.100000)"
fill="#000000" stroke="none">
<path d="M1099 2500 c-762 -121 -1237 -856 -1024 -1584 94 -323 353 -625 660
-770 268 -127 576 -156 871 -81 450 114 809 489 905 945 26 123 31 362 10 470
-96 494 -457 874 -943 996 -84 21 -133 26 -263 29 -88 2 -185 0 -216 -5z m481
-630 c162 -46 286 -135 373 -268 92 -139 149 -335 151 -517 1 -117 0 -122 -31
-181 -42 -82 -105 -134 -210 -178 -47 -20 -87 -35 -88 -34 -1 2 -10 38 -19 80
l-17 78 36 80 c33 74 35 82 25 122 -7 24 -22 61 -35 83 -26 45 -147 165 -166
165 -7 0 -47 -22 -89 -50 l-76 -50 53 -107 c93 -189 128 -393 84 -488 -23 -50
-97 -119 -159 -147 -71 -33 -189 -31 -262 3 -114 53 -180 144 -180 245 0 106
48 273 116 404 21 41 40 78 42 82 4 9 -146 108 -164 108 -24 0 -150 -134 -177
-189 -35 -70 -34 -103 3 -179 17 -34 30 -73 30 -85 0 -33 -21 -140 -30 -150
-3 -4 -39 6 -78 22 -158 65 -227 143 -253 282 -9 53 -9 84 5 178 56 380 231
614 518 690 111 30 109 30 323 26 167 -3 212 -7 275 -25z"/>
<path d="M1200 803 c-8 -3 -25 -10 -38 -14 -21 -8 -22 -10 -8 -37 32 -61 110
-118 147 -107 48 16 129 111 114 135 -15 24 -169 40 -215 23z"/>
</g>
</svg>
